<svg width="15" height="16" viewBox="0 0 15 16" fill="none" xmlns="http://www.w3.org/2000/svg">
<path fill-rule="evenodd" clip-rule="evenodd" d="M7.5 15.8286C11.6076 15.8286 14.9375 12.4987 14.9375 8.39111C14.9375 4.28357 11.6076 0.953613 7.5 0.953613C3.39238 0.953613 0.0625 4.28357 0.0625 8.39111C0.0625 12.4987 3.39238 15.8286 7.5 15.8286ZM10.795 5.09619C11.0684 5.36942 11.0684 5.81268 10.795 6.08612L8.48996 8.39111L10.795 10.6961C11.0683 10.9695 11.0683 11.4128 10.795 11.686C10.5216 11.9595 10.0784 11.9595 9.80502 11.686L7.5 9.38104L5.19498 11.686C4.92162 11.9595 4.47841 11.9595 4.20502 11.686C3.93167 11.4128 3.93167 10.9695 4.20502 10.6961L6.51004 8.39111L4.20502 6.08612C3.93167 5.81268 3.93167 5.36942 4.20502 5.09619C4.47838 4.82275 4.9216 4.82275 5.19498 5.09619L7.5 7.40118L9.80502 5.09619C10.0784 4.82275 10.5216 4.82275 10.795 5.09619Z" fill="currentColor" />
</svg>
