<svg width="32" height="32" viewBox="0 0 32 32" fill="none" xmlns="http://www.w3.org/2000/svg">
<path fill-rule="evenodd" clip-rule="evenodd" d="M22.5104 21.5104C22.0362 21.9846 21.2674 21.9846 20.7931 21.5104L16.5 17.2173L12.2069 21.5104C11.7326 21.9846 10.9638 21.9846 10.4896 21.5104C10.0154 21.0362 10.0154 20.2674 10.4896 19.7931L14.7827 15.5L10.4896 11.2069C10.0154 10.7326 10.0154 9.9638 10.4896 9.48959C10.9638 9.01539 11.7326 9.01539 12.2069 9.48959L16.5 13.7827L20.7931 9.48959C21.2674 9.01539 22.0362 9.01539 22.5104 9.48959C22.9846 9.9638 22.9846 10.7326 22.5104 11.2069L18.2173 15.5L22.5104 19.7932C22.9846 20.2674 22.9846 21.0362 22.5104 21.5104Z" fill="currentColor" />
</svg>
