<svg width="11" height="18" viewBox="0 0 11 18" fill="none" xmlns="http://www.w3.org/2000/svg">
<path d="M0 9C0 9.34576 0.14061 9.64068 0.432645 9.90508L8.86922 17.6644C9.09636 17.8881 9.39921 18 9.74533 18C10.4484 18 11 17.4915 11 16.8203C11 16.4949 9.74533 15.1002 9.50737 14.8764L3.0177 9L10.6214 2.02373C10.8594 1.78983 11 1.49492 11 1.16949C11 0.508475 10.4484 0 9.74533 0C9.39921 0 9.09636 0.111864 8.86922 0.335593L0.432645 8.09492C0.14061 8.35932 0.0108161 8.65424 0 9Z" fill="currentColor"/>
</svg>
